<svg width="117" height="87" viewBox="0 0 117 87" fill="none" xmlns="http://www.w3.org/2000/svg">
<g clip-path="url(#clip0_8_558)">
<path d="M100.673 50.0765C96.603 50.0973 93.0653 51.0693 90.1035 52.5061C89.0162 50.3719 87.9295 48.4706 87.738 47.0759C87.5246 45.4491 87.2691 44.4559 87.5246 42.512C87.7805 40.5681 88.9312 37.7999 88.9097 37.5888C88.8887 37.3776 88.6538 36.3844 86.3098 36.3635C83.9658 36.3422 81.9413 36.8071 81.7068 37.4198C81.4724 38.0324 81.025 39.4271 80.7266 40.8635C80.3216 42.9769 76.0386 50.5196 73.5881 54.4709C72.7993 52.9289 72.1174 51.5763 71.968 50.4988C71.755 48.8721 71.4991 47.8788 71.755 45.9349C72.011 43.991 73.1617 41.2233 73.1402 41.0117C73.1187 40.8005 72.8843 39.8073 70.5403 39.7864C68.1958 39.7651 66.1713 40.2301 65.9373 40.8427C65.7029 41.4558 65.4469 42.8922 64.957 44.2869C64.4667 45.6816 58.7769 58.2748 57.2852 61.5283C56.6824 62.8451 56.0501 64.1485 55.3886 65.4374C55.3886 65.4374 55.3672 65.5008 55.3032 65.6064C55.0954 66.0106 54.8824 66.4121 54.6643 66.8108V66.8317C54.3444 67.4026 54.0035 67.9305 53.833 67.9305C53.705 67.9305 53.4706 66.4093 53.8755 64.3386C54.7278 59.965 56.7524 53.1613 56.7313 52.9289C56.7313 52.802 57.1148 51.6189 55.4101 51.0058C53.7475 50.3932 53.1511 51.4073 53.0017 51.4073C52.8527 51.4073 52.7458 51.7666 52.7458 51.7666C52.7458 51.7666 54.6003 44.1179 49.2085 44.1179C45.8417 44.1179 41.1958 47.7732 38.8943 51.0693C36.278 52.4809 33.6639 53.8966 31.052 55.3164C29.7953 56.0138 28.4951 56.7111 27.2803 57.3659C27.1949 57.2816 27.1099 57.1756 27.0244 57.0913C20.5034 50.182 8.442 45.301 8.95339 36.0255C9.14534 32.6447 10.3171 23.7703 32.1178 12.9945C50.0608 4.22565 64.3392 6.6553 66.8111 12.0434C70.3484 19.7348 59.1608 34.0182 40.6204 36.0885C33.5455 36.8706 29.8373 34.1659 28.9 33.1518C27.9197 32.0951 27.7703 32.0317 27.4078 32.2433C26.8115 32.5605 27.1949 33.5111 27.4078 34.0603C27.9622 35.4967 30.2422 38.0324 34.0994 39.2794C37.5091 40.3778 45.7988 40.9908 55.8361 37.1452C67.0666 32.8346 75.8466 20.8544 73.2682 10.8182C70.6893 0.633725 53.641 -2.72574 37.5091 2.9578C27.9197 6.33902 17.52 11.6632 10.0402 18.5938C1.15363 26.8339 -0.253039 33.9969 0.322334 36.9975C2.38984 47.6463 17.2006 54.5769 23.1248 59.7112C22.8263 59.8803 22.5489 60.0284 22.3149 60.1553C19.3526 61.613 8.05811 67.4656 5.24523 73.6566C2.04891 80.6714 5.75708 85.7007 8.20756 86.3763C15.8154 88.4684 23.6362 84.7074 27.8342 78.4951C32.0323 72.2832 31.5209 64.2117 29.5818 60.5142C29.5604 60.472 29.5393 60.4295 29.4964 60.3873C30.2637 59.9437 31.052 59.4788 31.8194 59.0352C33.2296 58.2086 34.6578 57.4124 36.1029 56.6472C35.3781 58.6124 34.8452 60.9578 34.5897 64.3386C34.2698 68.3111 35.9105 73.4663 38.063 75.4945C39.0223 76.3826 40.1515 76.4035 40.8763 76.4035C43.3908 76.4035 44.5205 74.3327 45.7778 71.8817C47.3119 68.8816 48.6971 65.3953 48.6971 65.3953C48.6971 65.3953 46.971 74.8189 51.6595 74.8189C53.3641 74.8189 55.0902 72.6212 55.8575 71.5016V71.5224C55.8575 71.5224 55.9 71.459 55.9855 71.3112C56.156 71.0367 56.2624 70.8672 56.2624 70.8672V70.8255C56.9443 69.6419 58.4789 66.9585 60.7589 62.5002C63.6998 56.7533 66.5342 49.5694 66.5342 49.5694C66.5342 49.5694 66.7901 51.323 67.6634 54.2389C68.1753 55.9503 69.2401 57.8308 70.0929 59.6478C69.411 60.5989 68.9846 61.1268 68.9846 61.1268L69.0061 61.1481C68.4518 61.8663 67.8554 62.648 67.1945 63.4092C64.8716 66.1556 62.1016 69.3044 61.7178 70.2124C61.2699 71.29 61.3768 72.072 62.2296 72.706C62.8475 73.1709 63.9553 73.2339 65.085 73.1709C67.1735 73.0227 68.6437 72.5157 69.3681 72.1989C70.4978 71.7975 71.819 71.1844 73.0548 70.2759C75.3352 68.6065 76.72 66.219 76.5925 63.0712C76.5285 61.3384 75.9531 59.6057 75.2498 57.9785C75.4632 57.6831 75.6547 57.3872 75.8681 57.0913C79.4693 51.8722 82.2612 46.1461 82.2612 46.1461C82.2612 46.1461 82.5171 47.8996 83.3905 50.816C83.8169 52.295 84.6906 53.9008 85.4575 55.4641C82.0692 58.1901 79.9807 61.3593 79.2349 63.43C77.8927 67.2757 78.9365 69.008 80.9185 69.4095C81.8133 69.5998 83.092 69.177 84.0298 68.7756C85.2231 68.3954 86.6297 67.7406 87.9724 66.7682C90.2529 65.0994 92.4475 62.7748 92.3195 59.627C92.2555 58.1901 91.8721 56.7741 91.3392 55.4007C94.2161 54.218 97.9242 53.5628 102.655 54.112C112.799 55.2951 114.802 61.5704 114.418 64.2121C114.035 66.853 111.904 68.2898 111.201 68.7334C110.497 69.1775 110.263 69.3252 110.327 69.6419C110.412 70.1068 110.753 70.086 111.35 70.0013C112.181 69.8535 116.678 67.867 116.869 63.0073C117.189 56.7954 111.222 50.013 100.673 50.0765V50.0765ZM22.4214 76.2345C19.0542 79.8685 14.3662 81.2419 12.3417 80.0801C10.1681 78.8331 11.0204 73.4663 15.1545 69.6211C17.669 67.2757 20.9083 65.0989 23.0608 63.7681C23.5507 63.4722 24.2755 63.0499 25.1493 62.5215C25.2983 62.4368 25.3838 62.3947 25.3838 62.3947L25.8952 62.0775C27.4078 67.5712 25.9591 72.4101 22.4214 76.2345V76.2345ZM46.9285 59.7112C45.7563 62.5428 43.3058 69.7901 41.8141 69.3886C40.5354 69.0506 39.7466 63.5569 41.5582 58.1267C42.4745 55.4007 44.4136 52.1468 45.5433 50.8794C47.3759 48.8508 49.4005 48.1742 49.8904 48.9989C50.5087 50.0765 47.6529 57.9364 46.9285 59.7112V59.7112ZM67.152 69.3039C66.6617 69.5577 66.1932 69.7267 65.9798 69.5998C65.8308 69.5151 66.1932 69.177 66.1932 69.177C66.1932 69.177 68.7292 66.4728 69.7305 65.2471C70.3063 64.5289 70.9877 63.6838 71.7125 62.7327V63.0073C71.7125 66.2403 68.5583 68.4167 67.1516 69.3039H67.152ZM82.7511 65.7754C82.3887 65.5217 82.4527 64.6766 83.6674 62.0353C84.1363 60.9999 85.2441 59.2676 87.1411 57.5983C87.3541 58.2744 87.5035 58.9296 87.4821 59.5422C87.4606 63.6204 84.5202 65.1415 82.7511 65.7754Z" fill="#CD6799"/>
</g>
<defs>
<clipPath id="clip0_8_558">
<rect width="117" height="87" fill="white"/>
</clipPath>
</defs>
</svg>
