<svg width="112" height="112" viewBox="0 0 112 112" fill="none" xmlns="http://www.w3.org/2000/svg">
<path d="M101.535 17.6052L81.3541 7.88923C80.2144 7.33973 78.932 7.15839 77.6847 7.37036C76.4373 7.58233 75.2868 8.1771 74.3926 9.07223L8.3301 69.3002C7.52857 70.0275 7.04878 71.0435 6.99627 72.1245C6.94376 73.2056 7.32283 74.2632 8.0501 75.0647C8.1376 75.1592 8.2251 75.2502 8.3196 75.3342L13.7131 80.2342C14.4179 80.8757 15.325 81.25 16.2771 81.2922C17.2291 81.3344 18.1658 81.0418 18.9246 80.4652L98.4971 20.1252C99.0981 19.6692 99.8145 19.3899 100.566 19.3189C101.317 19.2479 102.073 19.388 102.749 19.7233C103.425 20.0587 103.993 20.5761 104.391 21.2172C104.789 21.8583 105 22.5977 105 23.3522V23.1177C105 21.9659 104.675 20.8375 104.062 19.8623C103.449 18.8871 102.573 18.1047 101.535 17.6052V17.6052Z" fill="#0065A9"/>
<path d="M101.535 94.3955L81.3541 104.115C80.2141 104.663 78.9321 104.843 77.6851 104.632C76.4381 104.42 75.2876 103.826 74.3926 102.932L8.3301 42.7005C7.52857 41.9732 7.04878 40.9573 6.99627 39.8762C6.94376 38.7952 7.32283 37.7376 8.0501 36.936C8.1376 36.8415 8.2251 36.7505 8.3196 36.6665L13.7131 31.7665C14.4186 31.1224 15.3278 30.7464 16.2822 30.7042C17.2366 30.662 18.1755 30.9562 18.9351 31.5355L98.4971 91.8755C99.0981 92.3316 99.8145 92.6108 100.566 92.6818C101.317 92.7529 102.073 92.6128 102.749 92.2774C103.425 91.942 103.993 91.4247 104.391 90.7835C104.789 90.1424 105 89.403 105 88.6485V88.9005C104.996 90.0493 104.669 91.1738 104.057 92.1456C103.444 93.1173 102.57 93.897 101.535 94.3955V94.3955Z" fill="#007ACC"/>
<path d="M81.3539 104.115C80.2139 104.663 78.9319 104.843 77.6849 104.631C76.4379 104.419 75.2874 103.825 74.3924 102.932C74.895 103.428 75.5329 103.764 76.226 103.9C76.9192 104.035 77.6368 103.962 78.2889 103.691C78.941 103.42 79.4987 102.963 79.892 102.376C80.2853 101.79 80.4968 101.1 80.4999 100.394V11.6062C80.5005 10.8967 80.2905 10.203 79.8965 9.61293C79.5025 9.02289 78.9423 8.56306 78.2867 8.2917C77.6312 8.02034 76.9098 7.94965 76.2141 8.08858C75.5183 8.22752 74.8795 8.56983 74.3784 9.07216C75.2728 8.17735 76.423 7.58254 77.6702 7.36998C78.9173 7.15742 80.1997 7.33762 81.3399 7.88566L101.517 17.5877C102.559 18.0847 103.438 18.8659 104.054 19.8413C104.67 20.8167 104.998 21.9464 105 23.1002V88.9002C105 90.053 104.675 91.1824 104.061 92.1583C103.447 93.1342 102.571 93.9169 101.531 94.4162L81.3539 104.115Z" fill="#1F9CF0"/>
</svg>
